<svg version="1.1" viewBox="0.0 0.0 480.0 480.0" fill="none" stroke="none" stroke-linecap="square" stroke-miterlimit="10" xmlns:xlink="http://www.w3.org/1999/xlink" xmlns="http://www.w3.org/2000/svg"><clipPath id="p.0"><path d="m0 0l480.0 0l0 480.0l-480.0 0l0 -480.0z" clip-rule="nonzero"/></clipPath><g clip-path="url(#p.0)"><path fill="#f7f8f3" d="m0 240.0l0 0c0 -132.54834 107.45166 -240.0 240.0 -240.0l0 0c63.651947 0 124.6969 25.285643 169.70563 70.29437c45.008728 45.008728 70.29437 106.053665 70.29437 169.70563l0 0c0 132.54834 -107.45166 240.0 -240.0 240.0l0 0c-132.54834 0 -240.0 -107.45166 -240.0 -240.0z" fill-rule="evenodd"/><path fill="#2e2d29" d="m230.90552 86.19423l24.094482 0l0 328.15747l-24.094482 0z" fill-rule="evenodd"/><path fill="#820000" d="m217.85039 66.42257l0 0c0 -13.976715 11.330368 -25.307083 25.307098 -25.307083l0 0c6.711853 0 13.148819 2.666275 17.894821 7.4122734c4.7459717 4.7459984 7.412262 11.182957 7.412262 17.89481l0 0c0 13.976723 -11.330383 25.30709 -25.307083 25.30709l0 0c-13.97673 0 -25.307098 -11.330368 -25.307098 -25.30709z" fill-rule="evenodd"/><path fill="#000000" fill-opacity="0.0" d="m181.39658 135.2293l0 0c37.630432 9.274292 63.230698 42.508286 61.258392 79.524994l-81.737076 -3.9605255z" fill-rule="evenodd"/><path fill="#000000" fill-opacity="0.0" d="m181.39658 135.2293l0 0c37.630432 9.274292 63.230698 42.508286 61.258392 79.524994" fill-rule="evenodd"/><path stroke="#2e2d29" stroke-width="24.0" stroke-linejoin="round" stroke-linecap="butt" d="m181.39658 135.2293l0 0c37.630432 9.274292 63.230698 42.508286 61.258392 79.524994" fill-rule="evenodd"/><path fill="#000000" fill-opacity="0.0" d="m299.8592 134.70984l0 0c-35.04889 9.634186 -58.747314 42.496796 -57.001373 79.04384l77.406525 -3.7506866z" fill-rule="evenodd"/><path fill="#000000" fill-opacity="0.0" d="m299.8592 134.70984l0 0c-35.04889 9.634186 -58.747314 42.496796 -57.001373 79.04384" fill-rule="evenodd"/><path stroke="#2e2d29" stroke-width="24.0" stroke-linejoin="round" stroke-linecap="butt" d="m299.8592 134.70984l0 0c-35.04889 9.634186 -58.747314 42.496796 -57.001373 79.04384" fill-rule="evenodd"/><path fill="#820000" d="m136.98688 127.86877l0 0c0 -13.976715 11.330368 -25.30709 25.307083 -25.30709l0 0c6.711853 0 13.148819 2.666275 17.894821 7.412277c4.745987 4.746002 7.412262 11.182953 7.412262 17.894814l0 0c0 13.976723 -11.330368 25.30709 -25.307083 25.30709l0 0c-13.976715 0 -25.307083 -11.330368 -25.307083 -25.30709z" fill-rule="evenodd"/><path fill="#820000" d="m294.7184 128.65955l0 0c0 -13.976723 11.330353 -25.30709 25.307098 -25.30709l0 0c6.711853 0 13.148804 2.666275 17.894806 7.4122696c4.746002 4.746002 7.412262 11.1829605 7.412262 17.894821l0 0c0 13.976715 -11.330353 25.307083 -25.307068 25.307083l0 0c-13.976746 0 -25.307098 -11.330368 -25.307098 -25.307083z" fill-rule="evenodd"/><path fill="#000000" fill-opacity="0.0" d="m64.43607 270.44882l0 0c0 -40.181976 30.444641 -72.755905 68.00001 -72.755905l0 0c18.034714 0 35.33078 7.665329 48.083252 21.309708c12.752472 13.644379 19.916748 32.15013 19.916748 51.446198l0 0c0 40.181976 -30.444641 72.75589 -68.0 72.75589l0 0c-37.555367 0 -68.00001 -32.573914 -68.00001 -72.75589z" fill-rule="evenodd"/><path stroke="#2e2d29" stroke-width="24.0" stroke-linejoin="round" stroke-linecap="butt" d="m64.43607 270.44882l0 0c0 -40.181976 30.444641 -72.755905 68.00001 -72.755905l0 0c18.034714 0 35.33078 7.665329 48.083252 21.309708c12.752472 13.644379 19.916748 32.15013 19.916748 51.446198l0 0c0 40.181976 -30.444641 72.75589 -68.0 72.75589l0 0c-37.555367 0 -68.00001 -32.573914 -68.00001 -72.75589z" fill-rule="evenodd"/><path fill="#000000" fill-opacity="0.0" d="m283.0971 270.44882l0 0c0 -40.181976 30.444641 -72.755905 68.0 -72.755905l0 0c18.034729 0 35.33078 7.665329 48.083252 21.309708c12.752502 13.644379 19.916748 32.15013 19.916748 51.446198l0 0c0 40.181976 -30.444641 72.75589 -68.0 72.75589l0 0c-37.55536 0 -68.0 -32.573914 -68.0 -72.75589z" fill-rule="evenodd"/><path stroke="#2e2d29" stroke-width="24.0" stroke-linejoin="round" stroke-linecap="butt" d="m283.0971 270.44882l0 0c0 -40.181976 30.444641 -72.755905 68.0 -72.755905l0 0c18.034729 0 35.33078 7.665329 48.083252 21.309708c12.752502 13.644379 19.916748 32.15013 19.916748 51.446198l0 0c0 40.181976 -30.444641 72.75589 -68.0 72.75589l0 0c-37.55536 0 -68.0 -32.573914 -68.0 -72.75589z" fill-rule="evenodd"/><path fill="#f7f8f3" d="m367.58792 184.65355l79.08661 0l0 171.59053l-79.08661 0z" fill-rule="evenodd"/><path fill="#820000" d="m352.6299 191.73753l0 0c0 -13.976715 11.330383 -25.307083 25.307098 -25.307083l0 0c6.711853 0 13.148804 2.666275 17.894806 7.412277c4.746002 4.745987 7.412262 11.182953 7.412262 17.894806l0 0c0 13.976715 -11.330353 25.307083 -25.307068 25.307083l0 0c-13.976715 0 -25.307098 -11.330368 -25.307098 -25.307083z" fill-rule="evenodd"/><path fill="#820000" d="m352.6299 345.56955l0 0c0 -13.976715 11.330383 -25.307068 25.307098 -25.307068l0 0c6.711853 0 13.148804 2.6662598 17.894806 7.412262c4.746002 4.746002 7.412262 11.182953 7.412262 17.894806l0 0c0 13.976715 -11.330353 25.307098 -25.307068 25.307098l0 0c-13.976715 0 -25.307098 -11.330383 -25.307098 -25.307098z" fill-rule="evenodd"/><path fill="#f7f8f3" d="m39.230972 192.94751l79.08662 0l0 171.59055l-79.08662 0z" fill-rule="evenodd"/><path fill="#820000" d="m79.86614 191.73753l0 0c0 -13.976715 11.330368 -25.307083 25.307083 -25.307083l0 0c6.7118607 0 13.148819 2.666275 17.894814 7.412277c4.746002 4.745987 7.412277 11.182953 7.412277 17.894806l0 0c0 13.976715 -11.330368 25.307083 -25.30709 25.307083l0 0c-13.976715 0 -25.307083 -11.330368 -25.307083 -25.307083z" fill-rule="evenodd"/><path fill="#820000" d="m79.86614 345.56955l0 0c0 -13.976715 11.330368 -25.307068 25.307083 -25.307068l0 0c6.7118607 0 13.148819 2.6662598 17.894814 7.412262c4.746002 4.746002 7.412277 11.182953 7.412277 17.894806l0 0c0 13.976715 -11.330368 25.307098 -25.30709 25.307098l0 0c-13.976715 0 -25.307083 -11.330383 -25.307083 -25.307098z" fill-rule="evenodd"/><path fill="#2e2d29" d="m399.34122 258.58267l0 24.094482l-312.34647 0l0 -24.094482z" fill-rule="evenodd"/><path fill="#820000" d="m386.81628 270.6299l0 0c0 -13.976715 11.330353 -25.307083 25.307068 -25.307083l0 0c6.711853 0 13.148834 2.666275 17.894806 7.412277c4.746002 4.746002 7.4122925 11.182953 7.4122925 17.894806l0 0c0 13.976715 -11.330383 25.307098 -25.307098 25.307098l0 0c-13.976715 0 -25.307068 -11.330383 -25.307068 -25.307098z" fill-rule="evenodd"/><path fill="#820000" d="m44.464565 270.6299l0 0c0 -13.976715 11.330372 -25.307083 25.307087 -25.307083l0 0c6.7118607 0 13.148811 2.666275 17.894814 7.412277c4.746002 4.746002 7.412277 11.182953 7.412277 17.894806l0 0c0 13.976715 -11.330368 25.307098 -25.30709 25.307098l0 0c-13.976715 0 -25.307087 -11.330383 -25.307087 -25.307098z" fill-rule="evenodd"/></g></svg>