<svg version="1.1" viewBox="0.0 0.0 768.0 192.0" fill="none" stroke="none" stroke-linecap="square" stroke-miterlimit="10" xmlns:xlink="http://www.w3.org/1999/xlink" xmlns="http://www.w3.org/2000/svg"><clipPath id="p.0"><path d="m0 0l768.0 0l0 192.0l-768.0 0l0 -192.0z" clip-rule="nonzero"/></clipPath><g clip-path="url(#p.0)"><path fill="#ffffff" fill-opacity="0.0" d="m370.13712 43.465878l325.29135 0l0 108.72441l-325.29135 0z" fill-rule="evenodd"/><path fill="#ffffff" d="m426.19962 126.282135q-2.890625 0 -4.625 -0.21875q-1.71875 -0.21875 -3.0625 -0.9375q-1.34375 -0.71875 -3.09375 -2.21875q-2.640625 -2.390625 -4.546875 -4.484375q-1.90625 -2.09375 -3.796875 -3.453125q-1.875 -1.34375 -4.5 -1.34375q-5.765625 0 -9.8125 -2.03125q-4.03125 -2.03125 -6.546875 -5.390625q-2.5 -3.359375 -3.671875 -7.421875q-1.15625 -4.078125 -1.15625 -8.078125q0 -3.953125 1.34375 -7.984375q1.359375 -4.046875 4.078125 -7.421875q2.734375 -3.390625 6.859375 -5.453125q4.140625 -2.078125 9.71875 -2.078125q5.703125 0 9.828125 2.078125q4.140625 2.0625 6.765625 5.484375q2.640625 3.40625 3.890625 7.421875q1.25 4.0 1.25 7.953125q0 3.125 -0.875 6.359375q-0.875 3.21875 -2.640625 6.203125q-1.75 2.96875 -4.40625 5.328125q-2.65625 2.34375 -6.171875 3.71875q1.8125 0 3.21875 0.25q1.421875 0.25 2.796875 0.96875q1.375 0.71875 3.015625 2.296875q2.1875 2.0 3.46875 3.25q1.28125 1.25 2.09375 1.90625q0.828125 0.65625 1.546875 0.875q0.71875 0.234375 1.71875 0.234375l0 4.1875l-2.6875 0zm-22.375 -17.234375q3.25 0 5.4375 -1.59375q2.203125 -1.59375 3.515625 -4.15625q1.328125 -2.578125 1.921875 -5.609375q0.59375 -3.046875 0.59375 -5.921875q0 -4.328125 -0.75 -7.890625q-0.75 -3.578125 -2.328125 -6.171875q-1.5625 -2.609375 -3.984375 -4.015625q-2.40625 -1.40625 -5.65625 -1.34375q-3.265625 0.0625 -5.453125 1.71875q-2.1875 1.65625 -3.484375 4.265625q-1.28125 2.59375 -1.84375 5.671875q-0.5625 3.0625 -0.5625 5.9375q0 2.953125 0.65625 6.28125q0.65625 3.3125 2.09375 6.265625q1.453125 2.9375 3.859375 4.75q2.40625 1.8125 5.984375 1.8125zm39.08899 4.578125q-3.75 0 -6.046875 -1.4375q-2.28125 -1.4375 -3.3125 -4.5q-1.03125 -3.078125 -1.03125 -7.90625l0 -7.203125q0 -1.125 0.0625 -2.59375q0.0625 -1.484375 0.125 -2.859375q-1.0 0.0625 -2.359375 0.09375q-1.34375 0.03125 -2.03125 0.09375l0 -4.765625l0.625 0q3.890625 0 6.140625 -0.625q2.265625 -0.625 2.890625 -1.25l3.4375 0l0 19.171875q0 4.078125 1.0625 6.046875q1.078125 1.96875 3.390625 1.96875q1.625 0 3.28125 -0.90625q1.671875 -0.90625 2.734375 -2.09375l0 -12.28125q0 -1.125 0.0625 -2.59375q0.0625 -1.484375 0.1875 -2.859375q-1.0 0.0625 -2.359375 0.09375q-1.34375 0.03125 -2.03125 0.09375l0 -4.765625l1.5 0q2.953125 0 5.203125 -0.65625q2.265625 -0.65625 2.890625 -1.21875l3.4375 0l0 21.859375q0 0.890625 -0.0625 2.484375q-0.0625 1.59375 -0.1875 3.03125q1.0 -0.125 2.21875 -0.15625q1.234375 -0.03125 1.859375 -0.03125l0 4.765625l-11.90625 0q-0.0625 -0.8125 -0.15625 -1.625q-0.09375 -0.8125 -0.21875 -1.640625q-1.9375 1.640625 -4.171875 2.953125q-2.21875 1.3125 -5.234375 1.3125zm43.174652 -1.0q-0.125 -0.875 -0.15625 -1.46875q-0.03125 -0.59375 -0.09375 -1.40625q-2.125 2.125 -4.515625 3.0q-2.375 0.875 -4.8125 0.875q-4.015625 0 -6.28125 -2.375q-2.25 -2.390625 -2.25 -5.953125q0 -3.015625 1.53125 -5.140625q1.546875 -2.125 4.078125 -3.46875q2.546875 -1.359375 5.640625 -2.078125q3.109375 -0.71875 6.234375 -0.84375l0 -3.265625q0 -1.625 -0.40625 -2.9375q-0.40625 -1.3125 -1.375 -2.0625q-0.96875 -0.75 -2.734375 -0.6875q-1.1875 0.0625 -2.3125 0.5q-1.125 0.4375 -1.9375 1.25q0.5 0.5625 0.625 1.21875q0.125 0.65625 0.125 1.15625q0 1.25 -1.015625 2.609375q-1.0 1.34375 -3.1875 1.28125q-1.875 -0.0625 -2.875 -1.3125q-1.0 -1.265625 -1.0 -2.953125q0 -2.5 1.78125 -4.34375q1.78125 -1.859375 4.78125 -2.890625q3.015625 -1.03125 6.65625 -1.03125q5.515625 0 8.546875 2.859375q3.03125 2.84375 3.03125 9.109375q0 2.125 0 3.640625q0 1.5 -0.03125 3.0q-0.03125 1.5 -0.03125 3.625q0 0.890625 -0.0625 2.484375q-0.0625 1.59375 -0.1875 3.03125q1.078125 -0.125 2.265625 -0.15625q1.1875 -0.03125 1.8125 -0.03125l0 4.765625l-11.84375 0zm-0.6875 -14.40625q-1.75 0.1875 -3.328125 0.625q-1.5625 0.4375 -2.71875 1.1875q-1.15625 0.75 -1.8125 1.8125q-0.65625 1.0625 -0.65625 2.390625q0.0625 1.75 1.125 2.5q1.0625 0.75 2.4375 0.75q1.453125 0 2.703125 -0.625q1.25 -0.625 2.25 -1.625q0 -0.625 0 -1.21875q0 -0.59375 0 -1.234375q0 -1.125 0 -2.28125q0 -1.15625 0 -2.28125zm16.097443 14.40625l0 -4.078125q1.765625 0 2.515625 -0.6875q0.75 -0.6875 0.96875 -1.96875q0.21875 -1.28125 0.21875 -2.921875l0 -10.515625q0 -1.125 0.0625 -2.53125q0.0625 -1.421875 0.1875 -2.796875q-1.0 0.0625 -2.359375 0.09375q-1.34375 0.03125 -2.03125 0.09375l0 -4.765625q2.890625 0 4.890625 -0.3125q2.0 -0.3125 3.15625 -0.75q1.171875 -0.4375 1.609375 -0.8125l3.0625305 0q0.125 0.8125 0.125 1.1875q0 0.375 0.03125 0.71875q0.03125 0.34375 0.21875 1.21875q1.265625 -1.0 2.890625 -1.78125q1.625 -0.78125 3.25 -1.25q1.640625 -0.46875 2.890625 -0.46875q5.765625 0 8.171875 3.296875q2.421875 3.28125 2.421875 10.546875l0 8.390625q0 0.890625 -0.0625 2.484375q-0.0625 1.59375 -0.1875 3.03125q1.0625 -0.125 2.25 -0.15625q1.1875 -0.03125 1.8125 -0.03125l0 4.765625l-16.40625 0l0 -4.078125q1.75 0 2.53125 -0.6875q0.78125 -0.6875 1.0 -1.96875q0.21875 -1.28125 0.21875 -2.921875l-0.0625 -8.890625q0 -4.078125 -1.15625 -6.046875q-1.15625 -1.96875 -3.921875 -1.96875q-1.5625 0 -3.09375 0.6875q-1.53125 0.6875 -2.609375 1.625q0 0.875 0 1.796875q0 0.90625 0 1.78125l0 10.578125q0 0.890625 -0.0625 2.484375q-0.0625 1.59375 -0.1875 3.03125q1.015625 -0.125 2.234375 -0.15625q1.21875 -0.03125 1.84375 -0.03125l0 4.765625l-16.421906 0zm52.004913 1.0q-1.875 0 -3.625 -0.4375q-1.75 -0.4375 -3.140625 -1.65625q-1.375 -1.21875 -2.1875 -3.59375q-0.8125 -2.390625 -0.8125 -6.34375l0.125 -15.09375l-4.265625 0l0 -5.203125q1.9375 -0.0625 3.75 -1.3125q1.828125 -1.25 3.109375 -3.25q1.28125 -2.015625 1.734375 -4.203125l4.625 0l-0.0625 8.765625l7.96875 0l0 4.828125l-7.96875 0.1875l-0.0625 15.40625q0 1.4375 0.28125 2.859375q0.28125 1.40625 1.09375 2.3125q0.828125 0.90625 2.390625 0.90625q0.875 0 2.40625 -0.625q1.53125 -0.625 3.296875 -3.125l3.0 2.8125q-1.6875 2.5 -3.515625 3.890625q-1.8125 1.375 -3.46875 2.0q-1.65625 0.625 -2.921875 0.75q-1.25 0.125 -1.75 0.125zm26.439453 0q-3.75 0 -6.046875 -1.4375q-2.28125 -1.4375 -3.3125 -4.5q-1.03125 -3.078125 -1.03125 -7.90625l0 -7.203125q0 -1.125 0.0625 -2.59375q0.0625 -1.484375 0.125 -2.859375q-1.0 0.0625 -2.359375 0.09375q-1.34375 0.03125 -2.03125 0.09375l0 -4.765625l0.625 0q3.890625 0 6.140625 -0.625q2.265625 -0.625 2.890625 -1.25l3.4375 0l0 19.171875q0 4.078125 1.0625 6.046875q1.078125 1.96875 3.390625 1.96875q1.625 0 3.28125 -0.90625q1.671875 -0.90625 2.734375 -2.09375l0 -12.28125q0 -1.125 0.0625 -2.59375q0.0625 -1.484375 0.1875 -2.859375q-1.0 0.0625 -2.359375 0.09375q-1.34375 0.03125 -2.03125 0.09375l0 -4.765625l1.5 0q2.953125 0 5.203125 -0.65625q2.265625 -0.65625 2.890625 -1.21875l3.4375 0l0 21.859375q0 0.890625 -0.0625 2.484375q-0.0625 1.59375 -0.1875 3.03125q1.0 -0.125 2.21875 -0.15625q1.234375 -0.03125 1.859375 -0.03125l0 4.765625l-11.90625 0q-0.0625 -0.8125 -0.15625 -1.625q-0.09375 -0.8125 -0.21875 -1.640625q-1.9375 1.640625 -4.171875 2.953125q-2.21875 1.3125 -5.234375 1.3125zm25.752808 -1.0l0 -4.078125q1.765625 0 2.515625 -0.6875q0.75 -0.6875 0.96875 -1.96875q0.21875 -1.28125 0.21875 -2.921875l0 -10.515625q0 -1.125 0.0625 -2.53125q0.0625 -1.421875 0.1875 -2.796875q-1.0 0.0625 -2.359375 0.09375q-1.34375 0.03125 -2.03125 0.09375l0 -4.765625q2.890625 0 4.890625 -0.3125q2.0 -0.3125 3.15625 -0.75q1.171875 -0.4375 1.609375 -0.8125l3.0625 0q0.125 0.625 0.15625 1.5625q0.03125 0.9375 0.09375 1.5625q2.140625 -1.625 4.609375 -2.5625q2.484375 -0.9375 4.671875 -0.9375q2.875 0 4.75 1.03125q1.890625 1.03125 3.015625 3.109375q2.25 -1.890625 4.96875 -3.015625q2.734375 -1.125 5.25 -1.125q5.078125 0 7.671875 2.921875q2.59375 2.90625 2.59375 10.109375l0 9.203125q0 0.890625 -0.0625 2.484375q-0.0625 1.59375 -0.1875 3.03125q1.015625 -0.125 2.234375 -0.15625q1.21875 -0.03125 1.84375 -0.03125l0 4.765625l-15.859375 0l0 -4.078125q1.453125 0 2.109375 -0.6875q0.65625 -0.6875 0.84375 -1.96875q0.1875 -1.28125 0.1875 -2.921875l0 -9.578125q-0.0625 -4.078125 -1.34375 -5.640625q-1.28125 -1.5625 -3.421875 -1.625q-1.625 -0.0625 -3.03125 0.5625q-1.40625 0.625 -2.546875 1.5q0.3125 1.25 0.4375 2.765625q0.125 1.5 0.125 3.1875q0 2.125 0 4.203125q0 2.0625 0 4.1875q0 0.890625 -0.0625 2.484375q-0.0625 1.59375 -0.1875 3.03125q1.015625 -0.125 2.203125 -0.15625q1.1875 -0.03125 1.875 -0.03125l0 4.765625l-16.171875 0l0 -4.078125q1.640625 0 2.359375 -0.6875q0.71875 -0.6875 0.90625 -1.96875q0.1875 -1.28125 0.1875 -2.921875l-0.0625 -9.765625q0 -4.078125 -1.1875 -5.578125q-1.1875 -1.5 -3.328125 -1.5625q-1.5625 0 -2.90625 0.6875q-1.34375 0.6875 -2.421875 1.625q0 0.8125 0 1.578125q0 0.75 0 1.5625l0 11.015625q0 0.890625 -0.0625 2.484375q-0.0625 1.59375 -0.1875 3.03125q1.015625 -0.125 2.078125 -0.15625q1.0625 -0.03125 1.6875 -0.03125l0 4.765625l-16.109375 0z" fill-rule="nonzero"/><path fill="#ffffff" fill-opacity="0.0" d="m72.57256 39.81008l325.29132 0l0 108.7244l-325.29132 0z" fill-rule="evenodd"/><path fill="#a80c30" d="m111.83819 81.07571q-0.609375 -3.734375 -2.140625 -6.21875q-1.53125 -2.5 -3.90625 -3.765625q-2.359375 -1.28125 -5.484375 -1.203125q-2.875 0 -5.046875 1.59375q-2.15625 1.59375 -2.15625 4.140625q0 2.0625 1.15625 3.59375q1.171875 1.53125 3.5625 2.875q2.40625 1.328125 6.078125 2.859375q2.53125 1.0 5.203125 2.328125q2.671875 1.328125 4.9375 3.171875q2.265625 1.828125 3.65625 4.265625q1.40625 2.421875 1.40625 5.703125q0 3.921875 -2.140625 7.0q-2.125 3.0625 -5.96875 4.765625q-3.828125 1.6875 -8.953125 1.6875q-2.671875 0 -5.78125 -0.828125q-3.09375 -0.828125 -5.828125 -2.4375l0.203125 2.796875l-5.125 0l0 -15.59375l4.390625 0q0.9375 5.59375 4.296875 8.4375q3.375 2.828125 8.03125 2.828125q2.40625 0 4.203125 -0.859375q1.796875 -0.875 2.796875 -2.296875q1.0 -1.4375 1.0 -3.109375q0 -2.328125 -1.640625 -3.859375q-1.625 -1.53125 -4.0625 -2.59375q-2.421875 -1.078125 -4.953125 -2.078125q-3.203125 -1.328125 -5.96875 -2.828125q-2.765625 -1.5 -4.84375 -3.4375q-2.0625 -1.9375 -3.203125 -4.4375q-1.125 -2.5 -1.125 -5.765625q0 -2.0625 0.796875 -4.296875q0.8125 -2.234375 2.609375 -4.125q1.796875 -1.90625 4.796875 -3.09375q3.0 -1.203125 7.40625 -1.203125q2.65625 0 5.828125 0.796875q3.171875 0.796875 5.4375 2.390625l-0.265625 -2.734375l5.1875 0l0 15.53125l-4.390625 0zm25.065727 32.796875q-2.0 0 -3.875 -0.46875q-1.859375 -0.453125 -3.328125 -1.75q-1.46875 -1.3125 -2.3437576 -3.84375q-0.859375 -2.53125 -0.859375 -6.734375l0.140625 -16.0625l-4.53125 0l0 -5.53125q2.0625 -0.0625 3.984375 -1.390625q1.9375076 -1.34375 3.2968826 -3.46875q1.375 -2.140625 1.84375 -4.46875l4.9375 0l-0.078125 9.328125l8.46875 0l0 5.125l-8.46875 0.203125l-0.0625 16.40625q0 1.53125 0.296875 3.03125q0.3125 1.5 1.171875 2.46875q0.859375 0.96875 2.53125 0.96875q0.9375 0 2.5625 -0.671875q1.640625 -0.671875 3.5 -3.328125l3.203125 3.0q-1.796875 2.65625 -3.734375 4.125q-1.9375 1.46875 -3.703125 2.125q-1.765625 0.671875 -3.09375 0.796875q-1.328125 0.140625 -1.859375 0.140625zm32.857193 -1.0625q-0.140625 -0.9375 -0.171875 -1.5625q-0.03125 -0.640625 -0.09375 -1.5q-2.265625 2.265625 -4.796875 3.1875q-2.53125 0.9375 -5.140625 0.9375q-4.265625 0 -6.671875 -2.53125q-2.390625 -2.53125 -2.390625 -6.328125q0 -3.203125 1.625 -5.46875q1.640625 -2.265625 4.34375 -3.6875q2.703125 -1.4375 6.0 -2.203125q3.296875 -0.78125 6.625 -0.90625l0 -3.46875q0 -1.734375 -0.4375 -3.125q-0.421875 -1.40625 -1.46875 -2.203125q-1.03125 -0.796875 -2.890625 -0.734375q-1.265625 0.0625 -2.46875 0.53125q-1.203125 0.46875 -2.0625 1.328125q0.53125 0.609375 0.65625 1.3125q0.140625 0.6875 0.140625 1.21875q0 1.34375 -1.0625 2.78125q-1.0625 1.421875 -3.40625 1.359375q-2.0 -0.0625 -3.0625 -1.390625q-1.0625 -1.34375 -1.0625 -3.140625q0 -2.671875 1.890625 -4.625q1.90625 -1.96875 5.109375 -3.0625q3.203125 -1.109375 7.0625 -1.109375q5.859375 0 9.09375 3.03125q3.234375 3.03125 3.234375 9.703125q0 2.265625 0 3.859375q0 1.59375 -0.03125 3.203125q-0.03125 1.59375 -0.03125 3.859375q0 0.9375 -0.078125 2.640625q-0.0625 1.6875 -0.1875 3.234375q1.125 -0.140625 2.390625 -0.171875q1.265625 -0.03125 1.9375 -0.03125l0 5.0625l-12.59375 0zm-0.734375 -15.328125q-1.875 0.203125 -3.546875 0.671875q-1.65625 0.453125 -2.890625 1.265625q-1.234375 0.796875 -1.9375 1.9375q-0.6875 1.125 -0.6875 2.515625q0.0625 1.875 1.1875 2.671875q1.140625 0.796875 2.609375 0.796875q1.53125 0 2.859375 -0.65625q1.34375 -0.671875 2.40625 -1.734375q0 -0.671875 0 -1.296875q0 -0.640625 0 -1.3125q0 -1.203125 0 -2.421875q0 -1.234375 0 -2.4375zm17.131058 15.328125l0 -4.328125q1.859375 0 2.65625 -0.734375q0.8125 -0.734375 1.046875 -2.09375q0.234375 -1.375 0.234375 -3.109375l0 -11.203125q0 -1.1875 0.0625 -2.6875q0.0625 -1.5 0.203125 -2.96875q-1.078125 0.0625 -2.515625 0.09375q-1.421875 0.03125 -2.15625 0.109375l0 -5.078125q3.0625 0 5.1875 -0.328125q2.140625 -0.328125 3.375 -0.796875q1.234375 -0.46875 1.703125 -0.875l3.265625 0q0.140625 0.875 0.140625 1.28125q0 0.390625 0.03125 0.765625q0.03125 0.359375 0.234375 1.296875q1.328125 -1.078125 3.0625 -1.90625q1.734375 -0.828125 3.46875 -1.328125q1.734375 -0.5 3.0625 -0.5q6.125 0 8.6875 3.5q2.578125 3.5 2.578125 11.234375l0 8.921875q0 0.9375 -0.078125 2.640625q-0.0625 1.6875 -0.1875 3.234375q1.125 -0.140625 2.390625 -0.171875q1.265625 -0.03125 1.9375 -0.03125l0 5.0625l-17.46875 0l0 -4.328125q1.875 0 2.703125 -0.734375q0.84375 -0.734375 1.0625 -2.09375q0.234375 -1.375 0.234375 -3.109375l-0.0625 -9.46875q0 -4.328125 -1.234375 -6.421875q-1.234375 -2.109375 -4.15625 -2.109375q-1.671875 0 -3.3125 0.734375q-1.625 0.734375 -2.765625 1.734375q0 0.9375 0 1.90625q0 0.953125 0 1.890625l0 11.265625q0 0.9375 -0.0625 2.640625q-0.0625 1.6875 -0.203125 3.234375q1.078125 -0.140625 2.375 -0.171875q1.296875 -0.03125 1.96875 -0.03125l0 5.0625l-17.46875 0zm46.65175 -35.265625q0 -8.0625 3.53125 -11.5625q3.546875 -3.5 9.546875 -3.5q3.125 0 4.984375 0.90625q1.875 0.890625 2.671875 2.234375q0.796875 1.328125 0.796875 2.734375q0 1.71875 -1.0625 3.0625q-1.0625 1.328125 -3.0625 1.390625q-1.9375 0.078125 -3.0 -1.015625q-1.0625 -1.109375 -1.0625 -2.78125q0 -0.328125 0.03125 -0.65625q0.03125 -0.34375 0.09375 -0.671875q-0.328125 -0.328125 -0.765625 -0.421875q-0.4375 -0.109375 -0.765625 -0.109375q-1.0625 0 -1.671875 0.640625q-0.59375 0.625 -0.796875 1.5625q-0.203125 0.921875 -0.203125 1.921875l0 8.203125l7.46875 0l0 5.125l-7.390625 0.203125l0.0625 17.140625q0 0.921875 -0.078125 2.6875q-0.0625 1.765625 -0.1875 3.3125q1.125 -0.140625 2.5625 -0.171875q1.4375 -0.03125 2.09375 -0.03125l0 5.0625l-17.796875 0l0 -4.328125q1.875 0 2.703125 -0.734375q0.84375 -0.734375 1.0625 -2.09375q0.234375 -1.375 0.234375 -3.109375l0 -17.59375l-4.859375 0.0625l0 -5.53125l4.859375 0l0 -1.9375zm36.399323 36.328125q-4.796875 0 -8.671875 -2.0625q-3.859375 -2.0625 -6.09375 -5.890625q-2.234375 -3.84375 -2.234375 -9.046875q0 -5.53125 2.296875 -9.6875q2.3125 -4.171875 6.140625 -6.46875q3.828125 -2.296875 8.359375 -2.296875q4.796875 0 8.59375 2.0625q3.8125 2.0625 6.0 5.90625q2.203125 3.828125 2.203125 9.15625q0 5.59375 -2.140625 9.734375q-2.125 4.125 -5.859375 6.359375q-3.734375 2.234375 -8.59375 2.234375zm0.265625 -4.734375q2.671875 -0.0625 4.03125 -1.859375q1.375 -1.796875 1.90625 -4.53125q0.53125 -2.734375 0.53125 -5.53125q0 -2.46875 -0.375 -5.0q-0.359375 -2.53125 -1.15625 -4.59375q-0.796875 -2.078125 -2.171875 -3.34375q-1.359375 -1.265625 -3.359375 -1.203125q-2.609375 0.078125 -4.109375 1.875q-1.5 1.796875 -2.140625 4.5q-0.625 2.703125 -0.625 5.625q0 3.40625 0.734375 6.671875q0.734375 3.265625 2.359375 5.375q1.640625 2.09375 4.375 2.015625zm21.133728 -0.65625q1.859375 0 2.65625 -0.734375q0.8125 -0.734375 1.046875 -2.09375q0.234375 -1.375 0.234375 -3.109375l0 -11.203125q0 -1.1875 0.0625 -2.6875q0.0625 -1.5 0.203125 -2.96875q-1.078125 0.0625 -2.515625 0.09375q-1.421875 0.03125 -2.15625 0.109375l0 -5.078125l2.671875 0q2.59375 0 4.75 -0.65625q2.171875 -0.671875 2.84375 -1.34375l3.265625 0q0.140625 0.671875 0.203125 2.515625q0.0625 1.828125 0.0625 3.21875q1.796875 -2.203125 3.390625 -3.53125q1.609375 -1.328125 3.171875 -1.953125q1.578125 -0.640625 3.171875 -0.640625q2.328125 0 4.0625 1.296875q1.734375 1.296875 1.734375 4.234375q0 1.0 -0.46875 2.109375q-0.46875 1.09375 -1.46875 1.828125q-1.0 0.71875 -2.734375 0.71875q-1.328125 0 -2.734375 -0.796875q-1.390625 -0.796875 -1.59375 -3.0625q-1.328125 0 -2.671875 1.109375q-1.328125 1.09375 -2.359375 2.59375q-1.03125 1.5 -1.4375 2.765625l0 10.859375q0 0.9375 -0.0625 2.640625q-0.0625 1.6875 -0.203125 3.234375q1.078125 -0.140625 2.375 -0.171875q1.296875 -0.03125 1.96875 -0.03125l0 5.0625l-17.46875 0l0 -4.328125zm44.321106 5.390625q-4.0 0 -7.03125 -2.0625q-3.03125 -2.0625 -4.734375 -5.859375q-1.6875 -3.8125 -1.6875 -8.9375q0 -5.40625 2.0625 -9.59375q2.0625 -4.203125 5.796875 -6.59375q3.734375 -2.40625 8.65625 -2.40625q1.8125 0 3.234375 0.375q1.4375 0.359375 2.703125 0.828125l0 -4.40625q0 -0.9375 0.0625 -2.671875q0.078125 -1.734375 0.203125 -3.1875q-1.0625 0.0625 -2.53125 0.125q-1.46875 0.0625 -2.203125 0.0625l0 -5.0625q3.140625 0 5.234375 -0.328125q2.109375 -0.34375 3.328125 -0.796875q1.234375 -0.46875 1.703125 -0.875l3.609375 0l0 39.59375q0 0.9375 -0.078125 2.640625q-0.0625 1.6875 -0.1875 3.234375q1.125 -0.140625 2.390625 -0.171875q1.265625 -0.03125 1.9375 -0.03125l0 5.0625l-12.671875 0q-0.0625 -0.734375 -0.171875 -1.53125q-0.09375 -0.796875 -0.21875 -1.53125q-2.203125 2.265625 -4.546875 3.1875q-2.328125 0.9375 -4.859375 0.9375zm3.46875 -6.0625q1.734375 0 3.203125 -0.890625q1.46875 -0.90625 2.328125 -2.3125q0 -1.0 0 -2.0q0 -1.0 0 -2.0l0 -16.0q-0.671875 -0.53125 -2.0 -0.890625q-1.328125 -0.375 -2.734375 -0.375q-3.0625 0.078125 -4.796875 1.953125q-1.734375 1.859375 -2.4375 4.71875q-0.6875 2.859375 -0.6875 6.0q0 2.796875 0.6875 5.53125q0.703125 2.734375 2.265625 4.5q1.578125 1.765625 4.171875 1.765625z" fill-rule="nonzero"/><path fill="#ffffff" d="m367.13385 49.125984l5.417328 0l0 81.637794l-5.417328 0z" fill-rule="evenodd"/></g></svg>